<svg xmlns="http://www.w3.org/2000/svg" viewBox="0 0 100.353 100.352"><path d="M92.155 30.246v-.004l-.001-.011a1.525 1.525 0 0 0-.04-.322c-.008-.034-.019-.066-.029-.099a1.506 1.506 0 0 0-.142-.325c-.014-.024-.024-.051-.039-.074-.027-.04-.06-.073-.09-.11-.024-.03-.046-.06-.072-.088a1.464 1.464 0 0 0-.251-.216l-.003-.003-.001-.001a.055.055 0 0 1-.008-.006L55.109 4.782a1.502 1.502 0 0 0-1.663 0l-12.802 8.535-.001.001-11.763 7.841a1.488 1.488 0 0 0-.442.295L8.525 34.73a1.538 1.538 0 0 0-.266.227c-.026.028-.048.058-.072.088-.03.037-.063.069-.09.11-.016.023-.025.049-.039.073a1.52 1.52 0 0 0-.141.324c-.011.035-.022.068-.03.103a1.467 1.467 0 0 0-.038.309c0 .008-.003.015-.003.022v33.77c0 .502.251.971.669 1.249l36.377 24.212.015.007c.105.068.22.119.34.16.03.01.059.02.089.028.124.033.252.056.386.056a1.452 1.452 0 0 0 .475-.085 1.47 1.47 0 0 0 .347-.163l.009-.004.006-.004.002-.001 44.924-29.95a1.5 1.5 0 0 0 .668-1.248v-33.76c.002-.002.002-.005.002-.007zM54.279 7.832l33.67 22.411-10.649 7.1-33.169-22.745 10.148-6.766zm-8.556 50.563L12.051 35.984l17.445-11.63 33.17 22.745-16.943 11.296zm-4.282-42.004L74.61 39.136l-9.255 6.17-33.17-22.745 9.256-6.17zM66.812 47.94l8.905-5.937-.317 14.134-8.588 5.634V47.94zm-55.966-9.155l33.377 22.216v30.166L10.846 68.952V38.785zm36.377 52.38V61l16.589-11.06v14.609a1.502 1.502 0 0 0 1.5 1.5c.287 0 .574-.082.823-.246l11.57-7.591c.412-.271.665-.727.677-1.221l.381-17.019 10.392-6.928V63.21L47.223 91.165z"/><path d="M41.479 68.453a1.5 1.5 0 0 0 .833-2.749L25.126 54.265a1.5 1.5 0 0 0-1.663 2.498L40.65 68.202c.255.17.544.251.829.251zm.833 5.076l-9.842-6.551a1.5 1.5 0 1 0-1.663 2.498l9.842 6.551a1.496 1.496 0 0 0 2.08-.418 1.5 1.5 0 0 0-.417-2.08z"/></svg>