<svg xmlns="http://www.w3.org/2000/svg" viewBox="0 0 100.353 100.352"><path d="M70.513 7.729H29.175c-5.321 0-9.65 4.329-9.65 9.65v66.235c0 5.321 4.329 9.65 9.65 9.65h41.338c5.321 0 9.65-4.329 9.65-9.65V17.379c0-5.321-4.329-9.65-9.65-9.65zm6.65 75.886a6.657 6.657 0 0 1-6.65 6.65H29.175a6.657 6.657 0 0 1-6.65-6.65V17.379a6.657 6.657 0 0 1 6.65-6.65h41.338a6.657 6.657 0 0 1 6.65 6.65v66.236z"/><path d="M37.36 17.261h24.736v3H37.36zm12.486 57.337h-.018a4.996 4.996 0 0 0-4.969 5.008 4.995 4.995 0 0 0 4.99 4.969h.018a4.955 4.955 0 0 0 3.521-1.475 4.955 4.955 0 0 0 1.447-3.533 4.995 4.995 0 0 0-4.989-4.969zm1.413 6.389a1.978 1.978 0 0 1-1.404.588h-.007a1.992 1.992 0 0 1-1.989-1.98 1.991 1.991 0 0 1 1.98-1.996h.007c1.093 0 1.984.887 1.989 1.98a1.975 1.975 0 0 1-.576 1.408z"/></svg>