<svg data-name="Слой 2" xmlns="http://www.w3.org/2000/svg" viewBox="0 0 100 100"><path d="M24.42 29.19a1.5 1.5 0 0 0-2.85 0l-13.33 40a1.5 1.5 0 0 0 2.85.95l4-12.14H30.5a1.49 1.49 0 0 0 .35 0l4.06 12.18a1.5 1.5 0 0 0 2.85-.95zM16.14 55L23 34.41 29.87 55zm73.98-4.89a12.92 12.92 0 0 0-5.26-3.26A10.5 10.5 0 0 0 78.3 28h-8.8a1.5 1.5 0 0 0-1.5 1.5v40a1.5 1.5 0 0 0 1.5 1.5h10.85c6.73 0 12.65-5.51 12.94-12a11.73 11.73 0 0 0-3.17-8.89zM71 31h7.3a7.49 7.49 0 0 1 6.06 12.18 7.47 7.47 0 0 1-4.71 2.73h-1.22a1.49 1.49 0 0 0-.61.13l-6.82.08zm9.35 37H71V49.12l7.5-.12a10.64 10.64 0 0 0 1.29-.08c3.52.22 6.33 1.34 8.17 3.26a8.81 8.81 0 0 1 2.33 6.66c-.22 4.97-4.77 9.16-9.94 9.16zM61.36 11.88A1.5 1.5 0 0 0 59.54 13l-18 73.34a1.5 1.5 0 1 0 2.91.71l18-73.34a1.5 1.5 0 0 0-1.09-1.83z"/></svg>