<svg data-name="Layer 1" xmlns="http://www.w3.org/2000/svg" viewBox="0 0 101 101"><path d="M79 64a12 12 0 0 0-11.95 11H31.11a2.63 2.63 0 0 1-1.89-4.45l44.65-39.92A5.62 5.62 0 0 0 69.93 21h-32a12 12 0 1 0-.13 3h32.13a2.63 2.63 0 0 1 1.89 4.45L27.17 68.37A5.62 5.62 0 0 0 31.11 78h36.07A12 12 0 1 0 79 64zM26 31a9 9 0 1 1 9-9 9 9 0 0 1-9 9zm53 54a9 9 0 1 1 9-9 9 9 0 0 1-9 9z"/><path d="M83.89 71.7a1.5 1.5 0 0 0-2.12 0l-2.58 2.58-2.59-2.58a1.5 1.5 0 0 0-2.12 2.12l2.58 2.58-2.58 2.6a1.5 1.5 0 1 0 2.12 2.12l2.58-2.58 2.58 2.58A1.5 1.5 0 0 0 83.89 79l-2.58-2.58 2.58-2.58a1.5 1.5 0 0 0 0-2.14z"/><circle cx="26" cy="22" r="3.5"/></svg>