<svg xmlns="http://www.w3.org/2000/svg" viewBox="0 0 263.9 33.32"><style>.st0{fill:none}.st1{fill:#fff}.st3{font-size:33.6441px}.st4{font-family:&apos;SegoeUI-Bold&apos;}</style><g id="_x31_"><path class="st0" d="M42.65 2.83h175.31v30.49H42.65z"/><text transform="translate(42.65 27.73)" class="st1 st3" font-family="SegoeUI-Semibold">КОРОБКИ</text><path class="st0" d="M28.99 2.83h22.53v28.06H28.99z"/><text transform="translate(28.988 27.73)" class="st1 st4 st3">Т</text><path class="st0" d="M209.02 2.98h54.88v30.34h-54.88z"/><text transform="translate(209.018 27.363)" class="st1 st4" font-size="32.941">.RU</text><path class="st0" d="M92.74 50.78h298.29V62.5H92.74z"/><path class="st1" d="M20.16 10.88c-1.88-1.92-4.29-3.51-6.82-4.4-4.01-1.42-8.22-.05-10.5 3.57-1.78 2.84-2.01 6.61-.93 9.75 1.25 3.66 4.01 6.44 7.64 7.76 6.81 2.46 14.6-.63 17.68-7.17.66-1.4.85-2.7.93-4.26.18-3.66-.72-7.58-3.37-10.25-1.56-1.57-3.75-2.8-6.03-2.58-2.04.19-3.8 1.32-5.18 2.79-1.28 1.37-2.31 3-3.09 4.7-.56 1.22-1.19 2.6-1.21 3.97-.04 2.41 3.71 2.41 3.75 0 .01-.48-.12.28-.01.04.07-.16.08-.37.13-.54.06-.22.13-.43.21-.65.05-.14.36-.91.23-.6.54-1.25 1.21-2.46 2.03-3.54.65-.86 1.6-1.82 2.69-2.27-.24.1.46-.12.59-.15.38-.08.12-.01.04-.01.18-.01.37-.01.55 0 .36.02.96.25 1.51.59 2.57 1.6 3.37 4.64 3.42 7.27a16.277 16.277 0 0 1-.12 2.4c-.05.55.08-.36-.03.24-.05.26-.11.48-.18.73-.04.16-.26.53.04-.08-.06.13-.12.27-.19.41-.19.39-.39.77-.62 1.14-.12.2-.25.4-.38.6-.07.11-.5.68-.26.37-.37.47-.78.92-1.22 1.34-.83.79-1.91 1.5-3.03 1.92-1.66.62-3.38.77-5.14.62-3-.25-5.61-1.8-7.03-4.19-.62-1.04-1.05-2.27-1.19-3.43-.15-1.22-.07-2.3.29-3.46.35-1.14.92-2.17 2.03-3 1.39-1.04 2.91-1.04 4.42-.59 2.26.67 4.15 2.03 5.71 3.62 1.68 1.72 4.33-.93 2.64-2.66z"/><path class="st1" d="M10.88 2.28c-.17.6-.23 1.26-.25 1.88-.03 1.3.26 2.59.87 3.73.22.41.68.74 1.12.86.45.12 1.05.07 1.44-.19.88-.57 1.17-1.64.67-2.57-.07-.13-.13-.26-.19-.4.06.15.13.3.19.45-.19-.44-.31-.91-.37-1.38.02.17.04.33.07.5-.07-.58-.07-1.16.01-1.73-.02.17-.04.33-.07.5.03-.22.07-.45.13-.66a1.9 1.9 0 0 0-.19-1.44c-.23-.39-.67-.76-1.12-.86-.48-.11-1.02-.09-1.44.19-.42.27-.73.64-.87 1.12z"/></g></svg>