<?xml version="1.0" encoding="utf-8"?>
<!-- Generator: Adobe Illustrator 24.0.1, SVG Export Plug-In . SVG Version: 6.00 Build 0)  -->
<svg version="1.1" xmlns="http://www.w3.org/2000/svg" xmlns:xlink="http://www.w3.org/1999/xlink" x="0px" y="0px"
	 viewBox="0 0 263.9 33.32" style="enable-background:new 0 0 263.9 33.32;" xml:space="preserve">
<style type="text/css">
	.st0{fill:none;}
	.st1{fill:#FFFFFF;}
	.st2{font-family:'SegoeUI-Semibold';}
	.st3{font-size:33.6441px;}
	.st4{font-family:'SegoeUI-Bold';}
	.st5{font-size:32.9406px;}
</style>
<g id="Layer_2">
</g>
<g id="_x31_">
	<rect x="42.65" y="2.83" class="st0" width="175.31" height="30.49"/>
	<text transform="matrix(1 0 0 1 42.6493 27.73)" class="st1 st2 st3"> КОРОБКИ</text>
	<g>
		<rect x="28.99" y="2.83" class="st0" width="22.53" height="28.06"/>
		<text transform="matrix(1 0 0 1 28.9882 27.73)" class="st1 st4 st3">Т</text>
	</g>
	<g>
		<rect x="209.02" y="2.98" class="st0" width="54.88" height="30.34"/>
		<text transform="matrix(1 0 0 1 209.0184 27.3628)" class="st1 st4 st5">.RU</text>
	</g>
	<rect x="92.74" y="50.78" class="st0" width="298.29" height="11.72"/>
	
		<text transform="matrix(1 0 0 1 92.7404 59.2236)" style="display:none;fill:#201600; font-family:'Roboto-Bold'; font-size:11.89px;">ПРОДУКТЫ ПО ЦЕНАМ ПРОИЗВОДИТЕЛЕЙ!</text>
	<g>
		<g>
			<g>
				<path class="st1" d="M20.16,10.88c-1.88-1.92-4.29-3.51-6.82-4.4c-4.01-1.42-8.22-0.05-10.5,3.57
					c-1.78,2.84-2.01,6.61-0.93,9.75c1.25,3.66,4.01,6.44,7.64,7.76c6.81,2.46,14.6-0.63,17.68-7.17c0.66-1.4,0.85-2.7,0.93-4.26
					c0.18-3.66-0.72-7.58-3.37-10.25c-1.56-1.57-3.75-2.8-6.03-2.58c-2.04,0.19-3.8,1.32-5.18,2.79c-1.28,1.37-2.31,3-3.09,4.7
					c-0.56,1.22-1.19,2.6-1.21,3.97c-0.04,2.41,3.71,2.41,3.75,0c0.01-0.48-0.12,0.28-0.01,0.04c0.07-0.16,0.08-0.37,0.13-0.54
					c0.06-0.22,0.13-0.43,0.21-0.65c0.05-0.14,0.36-0.91,0.23-0.6c0.54-1.25,1.21-2.46,2.03-3.54c0.65-0.86,1.6-1.82,2.69-2.27
					c-0.24,0.1,0.46-0.12,0.59-0.15c0.38-0.08,0.12-0.01,0.04-0.01c0.18-0.01,0.37-0.01,0.55,0c0.36,0.02,0.96,0.25,1.51,0.59
					c2.57,1.6,3.37,4.64,3.42,7.27c0.01,0.57,0,1.14-0.05,1.71c-0.02,0.23-0.04,0.46-0.07,0.69c-0.05,0.55,0.08-0.36-0.03,0.24
					c-0.05,0.26-0.11,0.48-0.18,0.73c-0.04,0.16-0.26,0.53,0.04-0.08c-0.06,0.13-0.12,0.27-0.19,0.41
					c-0.19,0.39-0.39,0.77-0.62,1.14c-0.12,0.2-0.25,0.4-0.38,0.6c-0.07,0.11-0.5,0.68-0.26,0.37c-0.37,0.47-0.78,0.92-1.22,1.34
					c-0.83,0.79-1.91,1.5-3.03,1.92c-1.66,0.62-3.38,0.77-5.14,0.62c-3-0.25-5.61-1.8-7.03-4.19c-0.62-1.04-1.05-2.27-1.19-3.43
					C4.92,15.75,5,14.67,5.36,13.51c0.35-1.14,0.92-2.17,2.03-3c1.39-1.04,2.91-1.04,4.42-0.59c2.26,0.67,4.15,2.03,5.71,3.62
					C19.2,15.26,21.85,12.61,20.16,10.88L20.16,10.88z"/>
			</g>
		</g>
		<g>
			<g>
				<path class="st1" d="M10.88,2.28c-0.17,0.6-0.23,1.26-0.25,1.88c-0.03,1.3,0.26,2.59,0.87,3.73c0.22,0.41,0.68,0.74,1.12,0.86
					c0.45,0.12,1.05,0.07,1.44-0.19c0.88-0.57,1.17-1.64,0.67-2.57c-0.07-0.13-0.13-0.26-0.19-0.4c0.06,0.15,0.13,0.3,0.19,0.45
					c-0.19-0.44-0.31-0.91-0.37-1.38c0.02,0.17,0.04,0.33,0.07,0.5c-0.07-0.58-0.07-1.16,0.01-1.73c-0.02,0.17-0.04,0.33-0.07,0.5
					c0.03-0.22,0.07-0.45,0.13-0.66c0.13-0.47,0.06-1.03-0.19-1.44c-0.23-0.39-0.67-0.76-1.12-0.86c-0.48-0.11-1.02-0.09-1.44,0.19
					C11.33,1.43,11.02,1.8,10.88,2.28L10.88,2.28z"/>
			</g>
		</g>
	</g>
</g>
</svg>
