<?xml version="1.0" encoding="iso-8859-1"?>
<!-- Generator: Adobe Illustrator 21.0.0, SVG Export Plug-In . SVG Version: 6.00 Build 0)  -->
<svg version="1.1" id="Layer_1" xmlns="http://www.w3.org/2000/svg" xmlns:xlink="http://www.w3.org/1999/xlink" x="0px" y="0px"
	 viewBox="0 0 100.353 100.352" style="enable-background:new 0 0 100.353 100.352;" xml:space="preserve">
<g>
	<path d="M70.513,7.729H29.175c-5.321,0-9.65,4.329-9.65,9.65v66.235c0,5.321,4.329,9.65,9.65,9.65h41.338
		c5.321,0,9.65-4.329,9.65-9.65V17.379C80.163,12.058,75.834,7.729,70.513,7.729z M77.163,83.615c0,3.667-2.983,6.65-6.65,6.65
		H29.175c-3.667,0-6.65-2.983-6.65-6.65V17.379c0-3.667,2.983-6.65,6.65-6.65h41.338c3.667,0,6.65,2.983,6.65,6.65V83.615z"/>
	<rect x="37.36" y="17.261" width="24.736" height="3"/>
	<path d="M49.846,74.598c-0.006,0-0.012,0-0.018,0h0c-2.75,0.011-4.979,2.258-4.969,5.008c0.01,2.743,2.247,4.969,4.99,4.969
		c0.006,0,0.012,0,0.018,0c1.333-0.006,2.583-0.529,3.521-1.475c0.938-0.946,1.453-2.201,1.447-3.533
		C54.824,76.823,52.588,74.598,49.846,74.598z M51.259,80.987c-0.375,0.377-0.873,0.586-1.404,0.588c-0.002,0-0.005,0-0.007,0
		c-1.093,0-1.984-0.887-1.989-1.98c-0.004-1.096,0.884-1.991,1.98-1.996c0.002,0,0.004,0,0.007,0c1.093,0,1.984,0.887,1.989,1.98
		C51.837,80.11,51.633,80.61,51.259,80.987z"/>
</g>
<g id="Layer_1_1_">
</g>
</svg>
